PathFileType	4	(X/Y/Z)	33_2_13_p0_0-268_filt_butterworth.trc
DataRate	CameraRate	NumFrames	NumMarkers	Units	OrigDataRate	OrigDataStartFrame	OrigNumFrames
60.0	60.0	7	27	m	60.0	201	268
Frame#	Time	RHip			RKnee			RAnkle			RBigToe			RSmallToe			RHeel			LHip			LKnee			LAnkle			LBigToe			LSmallToe			LHeel			Neck			Head			Nose			RShoulder			RElbow			RWrist			RThumb			RIndex			RPinky			LShoulder			LElbow			LWrist			LThumb			LIndex			LPinky			
		X1	Y1	Z1	X2	Y2	Z2	X3	Y3	Z3	X4	Y4	Z4	X5	Y5	Z5	X6	Y6	Z6	X7	Y7	Z7	X8	Y8	Z8	X9	Y9	Z9	X10	Y10	Z10	X11	Y11	Z11	X12	Y12	Z12	X13	Y13	Z13	X14	Y14	Z14	X15	Y15	Z15	X16	Y16	Z16	X17	Y17	Z17	X18	Y18	Z18	X19	Y19	Z19	X20	Y20	Z20	X21	Y21	Z21	X22	Y22	Z22	X23	Y23	Z23	X24	Y24	Z24	X25	Y25	Z25	X26	Y26	Z26	X27	Y27	Z27	
201	3.35	0.2861753216616824	0.5461073706087243	0.7139377657676251	0.2642236080984309	0.15357877224432426	0.6812809121558236	0.23749817930657763	-0.30889438756640436	0.6751457145027289	0.2784718914166906	-0.3012273718075899	0.5128695219687728	0.3320522775806469	-0.32160465544420475	0.5598522318896424	0.21079887823388016	-0.38601734172227764	0.7246674952714209	0.07220816016640207	0.5431033090732035	0.7238147088400408	0.06658867155127075	0.1218562416463484	0.703444030117506	0.05908904232309583	-0.33837163351553134	0.6870930866829869	0.09699551727853034	-0.29896214632872564	0.49593698803385083	0.053265592399723255	-0.30341538442171534	0.5151609730153179	0.0648762090622374	-0.406647781252599	0.7232047576690642	0.23169184801833886	1.0903463054546567	0.6052080670487382	0.2579862265034965	1.3366457959408864	0.5076405003135573	0.25699432667658795	1.2033490405157439	0.4747161123756922	0.4006747560371564	1.015375774892553	0.6255598001350541	0.398011096404622	0.7351434746218422	0.6449528136948076	0.3586680366814628	0.4671819638515954	0.6070298148282114	0.2957531756960007	0.3714573777085105	0.5358796597961645	0.31329778317421525	0.3536164523145301	0.5372740980006679	0.3361339697403228	0.3371252969268843	0.5847917180593201	0.06966682647654679	1.022756135023709	0.6125342590848376	0.025206136255437266	0.7486274975782582	0.6270777127552075	0.07962983990522321	0.5280931118210744	0.5016033489103962	0.14257567118363793	0.44974878503076887	0.4543519292966709	0.11537473289093977	0.43237681179004767	0.45372498722161053	0.0601173271601385	0.43119747020027943	0.46711156736260595	
202	3.3666666666666667	0.28660143185966513	0.5469236887553204	0.71460814737515	0.26461332474840776	0.15498082966005589	0.6790613883842698	0.23769152550991215	-0.30876814499246275	0.6746602581134874	0.27767621467623865	-0.30349534661079763	0.5151792141807783	0.3330149479498866	-0.322058732092545	0.5614243941750423	0.21106163883159418	-0.38736495659975656	0.7260813572144066	0.07216076861569613	0.5444027389249786	0.7238727964012376	0.06675068411916273	0.12252379843579225	0.7029603654524237	0.05903870946544659	-0.3387360411084752	0.6876123206190299	0.096749841076105	-0.2998029590382215	0.49597354924314435	0.052388496869748655	-0.30460772324875324	0.5168239342164289	0.06463533160365083	-0.40686748740895395	0.72297883868207	0.23283108719590206	1.0903592138266682	0.6052179108383442	0.2587243969438344	1.3351152735341134	0.5093494745770858	0.25994345248629425	1.2032519096067953	0.47439402457279417	0.4012526615913961	1.014130575703902	0.6254795017531843	0.39794652132714	0.7324289816065253	0.6489140996564038	0.35271950138715263	0.466340983287874	0.6102957361516574	0.29091910281159356	0.37381091843494163	0.5355376453398213	0.30803701212354345	0.35431369976051985	0.5359543856908591	0.33132677096816227	0.33823769226856365	0.5798484450328962	0.07183305922079525	1.0231943796274579	0.6078829836701787	0.02435992080763331	0.7475940002839746	0.6284781944639679	0.08130641808922275	0.5248584272957351	0.5116831926298278	0.14737884095183043	0.4507398500350803	0.45380315919492265	0.11934338804932071	0.433171635710184	0.45598481861365786	0.06811070314504522	0.42891394408438566	0.47554369235986704	
203	3.3833333333333333	0.28685813236275687	0.547732150363742	0.7157243893727403	0.2648737931543852	0.15595720722695994	0.6768870565349265	0.23797035253905477	-0.3085051302788544	0.6740307924664154	0.27716829484978067	-0.30444079992759276	0.5159414905540853	0.3333609212574281	-0.3219005932982081	0.5617636424850408	0.21130979318660276	-0.38867283681366377	0.7274299594236047	0.07205629619153146	0.5459157032929232	0.7236775996423728	0.06699056206549517	0.12318564229312007	0.7026566774147938	0.05884540893169243	-0.3389165566791134	0.6878398194438655	0.0965674090573342	-0.30049359046183133	0.49633472723041117	0.0516768573929017	-0.30555768111204257	0.5181324441881628	0.06427323767664721	-0.4068574238663833	0.7226439335233827	0.23386707155031305	1.0904192522192968	0.6051954315948208	0.2597644616306839	1.3337932865578526	0.5115390529328138	0.26317720733604033	1.2032224917820769	0.47298469733648496	0.40160981896670095	1.0125202233920505	0.6253223462458802	0.39801708850310935	0.7295034551267776	0.6529821256568257	0.3480574337175497	0.4666135366752624	0.610866070744148	0.28703025188552184	0.37588076087096456	0.5360795690174291	0.3035784545740397	0.35452496778902	0.5352581945208549	0.327268030193575	0.3389740574815828	0.5760939266276635	0.07421032856086426	1.0235975718826484	0.6027409876401479	0.02314895259848318	0.7470573288536941	0.6292665102754175	0.08206681652918668	0.5220706738815308	0.5199970589592315	0.1515521026006566	0.45168415848680077	0.45382920131679905	0.12242520918837524	0.43376989744181554	0.45820208702817755	0.07497832193825828	0.42537848397909334	0.485238071338587	
204	3.4	0.28699304629671435	0.548343593892178	0.7172105611288713	0.26496680723435717	0.15639756937864618	0.6750781577348292	0.23835162977564553	-0.30811209873492157	0.6732316654040019	0.2768775783071542	-0.3037822545026584	0.5147543181253232	0.3328732235710881	-0.3213803417763395	0.5608751047100093	0.21152447837609947	-0.38986046802739505	0.7285894216740573	0.07191204105505013	0.547543122009925	0.7232710067094166	0.06727172346662766	0.12374705859912122	0.7025098084711414	0.0585242713525114	-0.3389002755868141	0.6877516937962607	0.09642344288744355	-0.3006045346745023	0.4968111869973625	0.05098753227076897	-0.30648417805082273	0.5193947839834795	0.06384993467446337	-0.40664771402679406	0.7222444413506772	0.23486825036540426	1.0905494062138712	0.6050955072307724	0.26105860811999976	1.3328669748034465	0.5139504930780636	0.2665978962834439	1.2033047835838266	0.4703672702528513	0.40172335263740916	1.0106450285845758	0.6251107738387834	0.39796394922086653	0.7266564865616723	0.6571671056892044	0.34470163221030026	0.4676720393877255	0.6098788668168212	0.283704535275143	0.37733284175028825	0.5378813955002162	0.29986507834856346	0.3541934854412546	0.5359577235322257	0.32368031475511383	0.33898844857671306	0.5744248729638892	0.0765194521080518	1.0239289822190003	0.597712537285506	0.021750440215727078	0.7470683582016264	0.6289388420983415	0.08206197892376091	0.5197816462822589	0.5258902261589915	0.1547955040559662	0.45233116099832793	0.4546649840958413	0.1244072793874593	0.433810730040938	0.46134094266767733	0.08001742047877691	0.4208618106444213	0.4953414696994092	
205	3.4166666666666665	0.28708902102880707	0.5484711365764829	0.718983259989749	0.2648546122972783	0.156284356437008	0.6739255224300933	0.23884334533147522	-0.30756236950545346	0.6722347744505197	0.2766731367493614	-0.30191886156466374	0.5120519785370131	0.3316679210855096	-0.3207410053935598	0.5590435546207212	0.2117060930644524	-0.39088201659387506	0.7295361544494069	0.07174895002655672	0.5489123976462901	0.7227752503254943	0.06754071225147723	0.1242549117514446	0.7024347184506159	0.058130985267941804	-0.33870357456740646	0.687378429114607	0.09626986687516229	-0.2997900458050544	0.49685825690613905	0.05021433710809444	-0.30754757765359936	0.5208401642061379	0.06346025085351668	-0.4062721637499778	0.7218519539773294	0.23591922756649097	1.0907314344266112	0.6048593892029543	0.262559127947606	1.3323987354511884	0.5162994050260498	0.27000831638121237	1.2035103346177616	0.4668318074433966	0.40169323162036685	1.0086766963910332	0.6248877063949705	0.3975605933171016	0.7241434213760521	0.6615245157723495	0.3425298303363603	0.4688768662327125	0.6090396224009837	0.2804247005223469	0.37777987374846556	0.5414954755686643	0.2966374484967623	0.35321725319598485	0.5384362062390724	0.32030757352700495	0.33810658559091156	0.5752529938103939	0.07859399596041715	1.0242073140016772	0.5931714084076559	0.020415715415267408	0.7475922230461809	0.627272106278902	0.08142486437437049	0.5178023058569485	0.5300008902957094	0.15637567753151066	0.45189985798759014	0.45765085373448716	0.12500516555332478	0.4327012673014884	0.4663982727730476	0.08249946083737819	0.4156469309213141	0.5056182916855841	
206	3.433333333333333	0.28717552019623677	0.5479919048750187	0.7208849020345948	0.2645344409618277	0.15571782754834734	0.6735126474087614	0.2394308692384885	-0.30681404515269545	0.6710617805887689	0.2763654907912826	-0.29982364586084115	0.5090458189811967	0.3300428224198224	-0.3202290018943593	0.5568265836479783	0.2118608567128668	-0.39170525396641426	0.7302808412232379	0.07158609600165673	0.5496659073917612	0.7222839090412652	0.06775471034126623	0.12477920567485618	0.7023713458469432	0.05773498695633991	-0.3383912015855323	0.686832875120807	0.09611723793846827	-0.2979770745938519	0.4958895703381362	0.04928068692950027	-0.3088588389745925	0.5226278449885002	0.06316464224821895	-0.4057467337177721	0.721512178851856	0.23708810033631159	1.0908612925244783	0.6044882949868835	0.2641844780355411	1.33233382304794	0.5183227980395538	0.2732527752275189	1.203884246117761	0.46274408052175375	0.4016590507807929	1.0068965868463942	0.624707653465689	0.3966317320378583	0.722075508024094	0.666131812738627	0.3412789198334969	0.46949617847743874	0.6097626098946134	0.27692739139609024	0.376987176924937	0.5471492226864488	0.2936161803760591	0.351602817710445	0.5424681017016584	0.31710257100939143	0.33667510398937894	0.5780099940333834	0.08032504771096885	1.0244717857619965	0.5893770841374767	0.01942143271080907	0.7484033287619127	0.6247346115148269	0.08016271817702024	0.5158278314871649	0.5339788504398282	0.15565153112961042	0.4496299709578653	0.4641744203418172	0.12401283422522874	0.42996055828614343	0.47378705481936034	0.0817744497293516	0.40988725174849433	0.5166036389621143	
207	3.45	0.2872101686426197	0.5470468341050426	0.7226418037274837	0.26404376846267646	0.15491569928801147	0.6735703586732553	0.24006341420436908	-0.305886614981904	0.6698489416971726	0.2758101173995255	-0.2984314960282274	0.5069481236183462	0.328263245604415	-0.3200849399094689	0.554896314198365	0.21198887740201147	-0.3923018289420028	0.730827263053165	0.07143860228915812	0.5497599170745355	0.721827284655596	0.0678972210564104	0.12534320933733173	0.7023051364031005	0.05738878048466317	-0.3380735125851348	0.686295707772659	0.09603468453706501	-0.2953956011398346	0.4936840143322833	0.048135660598764875	-0.3104925918265097	0.524863245725762	0.06296835800901528	-0.40508357258464767	0.7212343194563671	0.23836736427732616	1.0907924005753342	0.6041972458677343	0.26591067485128617	1.332564342397494	0.5197088231058595	0.2762807553699602	1.2044429946096467	0.4583532110138192	0.40168643808475935	1.0055804780757718	0.6245883516371216	0.3951526477264306	0.7204191174266401	0.6709749091619912	0.3405548462758162	0.4691363129912493	0.6124163932831264	0.2733068090083684	0.37488590718799997	0.5545494735348714	0.29056387185745186	0.34943024085565594	0.5476171887087946	0.3142430778475602	0.33539093961535404	0.581540620706376	0.08155034992582408	1.024708504984737	0.5866978163418132	0.018958642667444733	0.7491336668736424	0.6222624267804585	0.0781110299992006	0.5134865071616908	0.5394381400235486	0.1526065309409216	0.44527354845639006	0.4747220147672685	0.12149616245653963	0.4256398402444443	0.48300363041974925	0.07778173497156203	0.40371575555810035	0.5289235000670718	
